<svg xmlns="http://www.w3.org/2000/svg" viewBox="0 0 120 120" fill="none">
  <defs>
    <linearGradient id="g" x1="0" x2="1">
      <stop offset="0" stop-color="#D4AF37" />
      <stop offset="1" stop-color="#F8E9B6" />
    </linearGradient>
  </defs>
  <rect width="120" height="120" rx="16" fill="#222" />
  <g transform="translate(12,12)">
    <path d="M44 6c-21 0-38 17-38 38 0 7 2 14 6 19l-6 18 19-6c5 3 11 5 17 5 21 0 38-17 38-38S65 6 44 6z" fill="#111" opacity="0.6" />
    <path d="M23 42c-1-1-2-2-2-3 0-1 1-2 1-3 1-1 8-7 9-7 1 0 2-1 3-1 1 0 2 1 2 1 0 1 0 1-1 3 0 1-6 9-9 12-2 2-4 2-6 0z" fill="url(#g)" opacity="0.98"/>
    <circle cx="78" cy="18" r="6" fill="#D4AF37" opacity="0.9"/>
  </g>
</svg>